HIERARCHY
ROOT Hips
{
	OFFSET 0.000000 0.000000 0.000000
	CHANNELS 6 Xposition Yposition Zposition Xrotation Zrotation Yrotation
	JOINT Spine
	{
		OFFSET 0.000000 -365.647827 -0.000120
		CHANNELS 6 Xposition Yposition Zposition Xrotation Zrotation Yrotation
		JOINT Spine1
		{
			OFFSET 0.000000 -827.386597 -0.000270
			CHANNELS 6 Xposition Yposition Zposition Xrotation Zrotation Yrotation
			JOINT Neck
			{
				OFFSET 0.000000 -916.568848 -0.000298
				CHANNELS 6 Xposition Yposition Zposition Xrotation Zrotation Yrotation
				JOINT Head
				{
					OFFSET 0.000000 -691.163574 -89.182617
					CHANNELS 6 Xposition Yposition Zposition Xrotation Zrotation Yrotation
					End Site
					{
						OFFSET 0.000000 -891.823975 -0.000290
					}
				}
			}
			JOINT LeftShoulder
			{
				OFFSET 177.992798 -747.856689 19.451471
				CHANNELS 6 Xposition Yposition Zposition Xrotation Zrotation Yrotation
				JOINT LeftArm
				{
					OFFSET 515.877136 0.000000 0.000000
					CHANNELS 6 Xposition Yposition Zposition Xrotation Zrotation Yrotation
					JOINT LeftForeArm
					{
						OFFSET 1337.809814 0.000000 0.000000
						CHANNELS 6 Xposition Yposition Zposition Xrotation Zrotation Yrotation
						JOINT LeftHand
						{
							OFFSET 1196.500488 0.000000 0.000000
							CHANNELS 6 Xposition Yposition Zposition Xrotation Zrotation Yrotation
							End Site
							{
								OFFSET 668.868164 0.000000 0.000000
							}
						}
					}
				}
			}
			JOINT RightShoulder
			{
				OFFSET -178.356552 -747.856689 19.451471
				CHANNELS 6 Xposition Yposition Zposition Xrotation Zrotation Yrotation
				JOINT RightArm
				{
					OFFSET -515.877136 0.000000 0.000000
					CHANNELS 6 Xposition Yposition Zposition Xrotation Zrotation Yrotation
					JOINT RightForeArm
					{
						OFFSET -1337.809814 0.000000 0.000000
						CHANNELS 6 Xposition Yposition Zposition Xrotation Zrotation Yrotation
						JOINT RightHand
						{
							OFFSET -1196.500488 0.000000 0.000000
							CHANNELS 6 Xposition Yposition Zposition Xrotation Zrotation Yrotation
							End Site
							{
								OFFSET -668.868164 0.000000 0.000000
							}
						}
					}
				}
			}
		}
	}
	JOINT LeftUpLeg
	{
		OFFSET 445.911926 0.000000 0.000000
		CHANNELS 6 Xposition Yposition Zposition Xrotation Zrotation Yrotation
		JOINT LeftLeg
		{
			OFFSET 0.000000 2320.838135 0.000756
			CHANNELS 6 Xposition Yposition Zposition Xrotation Zrotation Yrotation
			JOINT LeftFoot
			{
				OFFSET 0.000000 1864.391846 0.000608
				CHANNELS 6 Xposition Yposition Zposition Xrotation Zrotation Yrotation
				JOINT LeftToeBase
				{
					OFFSET 0.000000 289.842773 -668.867798
					CHANNELS 6 Xposition Yposition Zposition Xrotation Zrotation Yrotation
					End Site
					{
						OFFSET 0.000000 0.000000 -178.364807
					}
				}
			}
		}
	}
	JOINT RightUpLeg
	{
		OFFSET -445.911926 0.000000 0.000000
		CHANNELS 6 Xposition Yposition Zposition Xrotation Zrotation Yrotation
		JOINT RightLeg
		{
			OFFSET 0.000000 2320.838135 0.000756
			CHANNELS 6 Xposition Yposition Zposition Xrotation Zrotation Yrotation
			JOINT RightFoot
			{
				OFFSET 0.000000 1864.391846 0.000608
				CHANNELS 6 Xposition Yposition Zposition Xrotation Zrotation Yrotation
				JOINT RightToeBase
				{
					OFFSET 0.000000 289.842773 -668.867798
					CHANNELS 6 Xposition Yposition Zposition Xrotation Zrotation Yrotation
					End Site
					{
						OFFSET 0.000000 0.000000 -178.364807
					}
				}
			}
		}
	}
}
MOTION
Frames: 5
Frame Time: 0.041667
-152.326874 -3826.763184 598.418274 8.971875 -2.854876 0.648892 -0.000037 -365.647919 0.000029 7.464925 4.413334 -2.312719 -0.000031 -827.386963 -0.000284 4.009642 -0.256896 -0.854094 -0.000127 -916.567749 -0.000439 19.360308 -17.055237 -21.373146 -0.000217 -691.164795 -89.182045 4.030199 25.881052 -23.581218 177.992752 -747.856018 19.451704 -2.537402 -2.386685 10.581916 515.877502 -0.000793 -0.000324 27.877834 18.085180 12.351360 1337.809814 -0.000364 0.000355 -14.580806 -15.769848 6.956505 1196.500732 -0.000044 -0.000147 -13.397791 -38.990709 -0.617630 -178.356461 -747.856262 19.451714 -1.164663 9.052368 -6.441179 -515.876953 0.000190 -0.000711 67.470132 22.696937 -38.489168 -1337.810425 -0.000621 0.000211 144.879828 -223.976096 -271.666348 -1196.500122 -0.000278 0.000076 10.063916 51.636872 0.073767 445.911957 -0.000290 0.000172 -18.271345 -27.562853 13.968138 -0.000525 2320.837158 0.000636 13.458819 23.846419 -32.583062 -0.000512 1864.391357 0.000534 -6.556232 7.497880 -19.500815 -0.000065 289.842773 -668.868103 -0.000002 0.000001 -0.000005 -445.911926 -0.000015 0.000183 -22.717018 33.681128 -2.070582 -0.000050 2320.838135 0.000722 32.525419 -32.853224 3.759002 0.000709 1864.391968 0.000446 -21.077457 6.340013 30.032174 -0.000080 289.843292 -668.868042 0.000000 -0.000001 0.000000 
-157.251358 -3822.603271 600.476135 9.029534 -2.963192 0.616128 0.000056 -365.647156 -0.000169 7.398194 4.409344 -2.249470 -0.000000 -827.387207 -0.000467 3.945271 -0.168648 -0.829087 -0.000247 -916.569458 -0.000316 19.445631 -17.071551 -21.538110 -0.000015 -691.164307 -89.182793 3.974365 26.033124 -23.760775 177.992691 -747.857666 19.451765 -2.712752 -2.442954 10.780109 515.877563 -0.000277 -0.000072 25.383329 17.731118 11.048866 1337.809570 0.000529 0.000048 -10.905477 -12.136192 5.587706 1196.500977 0.000120 -0.000048 -9.814959 -38.287066 -1.429367 -178.356598 -747.857361 19.451651 -1.150751 9.064633 -6.504256 -515.876892 0.000729 -0.000642 67.412806 22.603577 -38.069446 -1337.808960 -0.000040 -0.000162 145.285063 -223.663492 -271.679899 -1196.499634 0.000758 0.000017 9.843682 51.459957 -0.581260 445.911987 -0.000153 0.000046 -18.412247 -27.587928 14.123158 -0.000678 2320.837646 0.000665 13.478640 24.014872 -32.668409 -0.000116 1864.391724 0.000488 -6.561469 7.514245 -19.505661 -0.000109 289.842773 -668.867798 0.000001 0.000002 -0.000004 -445.911987 0.000214 0.000008 -23.075536 33.887410 -2.231066 0.000281 2320.838135 0.000841 33.140389 -33.126547 3.328073 0.000437 1864.392700 0.000581 -21.230989 6.425781 30.153356 -0.000172 289.842804 -668.868225 -0.000000 0.000002 -0.000006 
-163.539963 -3818.084961 601.213867 9.001874 -3.014073 0.504738 0.000010 -365.647736 -0.000219 7.314138 4.383242 -2.099093 0.000003 -827.386719 -0.000223 3.946001 -0.141699 -0.776776 -0.000062 -916.569092 -0.000498 19.558013 -17.097425 -21.721955 -0.000065 -691.164246 -89.182755 3.840720 26.199651 -23.974505 177.992874 -747.856812 19.451439 -2.853279 -2.558493 10.970372 515.877502 -0.000514 -0.000162 21.938902 17.410695 9.406800 1337.809570 0.000669 0.000341 -6.882362 -8.233444 4.720307 1196.500488 -0.001649 0.000040 -5.675782 -37.385652 -2.561285 -178.356415 -747.857178 19.451538 -1.186088 9.061920 -6.622027 -515.877075 0.001006 -0.000082 67.280929 22.441857 -37.777063 -1337.809937 -0.000091 -0.000101 145.771345 -223.635638 -271.525974 -1196.500122 -0.000095 -0.000086 10.553207 51.663828 0.165337 445.912079 -0.000137 -0.000263 -18.508274 -27.676736 14.356455 -0.000891 2320.837891 0.000512 13.500540 24.213191 -32.713649 -0.000452 1864.391724 0.000595 -6.585186 7.540359 -19.527448 -0.000117 289.842773 -668.868103 -0.000001 0.000002 0.000001 -445.911926 0.000198 -0.000351 -23.225718 34.066337 -2.245708 -0.000215 2320.837646 0.000595 33.789745 -33.337839 2.677985 0.000652 1864.392212 0.000562 -21.463678 6.470661 30.237787 -0.000080 289.842773 -668.867859 -0.000000 -0.000001 0.000006 
-169.636032 -3813.530273 602.313599 9.013492 -3.060733 0.410325 -0.000021 -365.647980 -0.000272 7.224906 4.344430 -1.942621 0.000010 -827.386719 -0.000521 3.892950 -0.148032 -0.722956 -0.000121 -916.569336 -0.000314 19.672639 -17.138835 -21.916387 0.000381 -691.164001 -89.182487 3.719927 26.392831 -24.197579 177.992813 -747.856567 19.451723 -2.907578 -2.706731 11.146464 515.877441 0.000005 -0.000010 20.148556 17.079467 8.640322 1337.809570 -0.000350 -0.000118 -4.062815 -5.055912 3.505523 1196.500244 -0.000680 0.000219 -2.901164 -36.040026 -3.094453 -178.356445 -747.856140 19.451653 -1.174719 9.095272 -6.674419 -515.877197 0.000933 -0.000268 67.137877 22.373717 -37.536274 -1337.809937 -0.000058 0.000383 146.158535 -223.438260 -271.408659 -1196.499878 0.000189 -0.000122 10.714909 51.673359 0.284854 445.911987 -0.000244 -0.000130 -18.665712 -27.761925 14.314845 -0.000217 2320.837891 0.000634 13.699863 24.333247 -32.488956 -0.000360 1864.392578 0.000442 -6.608576 7.577976 -19.506972 -0.000283 289.842804 -668.867981 -0.000003 0.000003 -0.000003 -445.911926 -0.000397 -0.000237 -23.413747 34.230101 -2.210525 0.000297 2320.837646 0.000563 34.332431 -33.664834 2.021078 0.000172 1864.392700 0.000661 -21.569678 6.888101 30.683290 -0.000008 289.842743 -668.867798 -0.000002 -0.000000 -0.000001 
-175.486618 -3808.864014 603.168762 9.000097 -3.138936 0.317587 0.000011 -365.648956 0.000006 7.144517 4.244467 -1.750577 0.000011 -827.387085 -0.000200 3.883560 -0.197833 -0.658001 -0.000119 -916.569214 -0.000557 19.785490 -17.129247 -22.099096 0.000416 -691.164490 -89.183083 3.563471 26.542916 -24.416207 177.992752 -747.855652 19.451170 -3.073397 -2.843022 11.261810 515.877625 -0.002062 -0.000132 20.580916 16.788795 8.872647 1337.810059 0.000245 -0.000162 -2.360148 -2.650774 1.864052 1196.500488 -0.000038 -0.000034 -1.310594 -34.552138 -3.235294 -178.356491 -747.856018 19.451117 -1.214125 9.130526 -6.818583 -515.877014 0.000233 -0.000259 67.044468 22.238720 -37.232311 -1337.809937 0.000075 -0.000325 146.499894 -222.951991 -271.424997 -1196.500244 -0.000275 0.000158 10.103168 51.301363 -0.690359 445.911865 -0.000656 -0.000053 -18.759055 -27.820657 14.517178 -0.000461 2320.837402 0.000634 13.722179 24.522498 -32.521331 -0.000330 1864.392090 0.000411 -6.638237 7.580264 -19.532022 -0.000213 289.842743 -668.867798 0.000002 -0.000000 0.000003 -445.911987 -0.000931 0.000084 -23.617998 34.449275 -2.278046 -0.000048 2320.838623 0.000730 34.979697 -33.975902 1.194311 0.000699 1864.391846 0.000684 -21.704712 7.106190 31.095071 0.000375 289.842773 -668.867981 0.000002 -0.000001 0.000001 
